# xmcd
#
# Track frame offsets:
#	150
#	14085
#	31142
#	43815
#	68830
#	85725
#	102452
#	122260
#	138332
#	148690
#	164577
#	179580
#	190770
#	207940
#	227180
#	253577
#	263822
#	284312
#
# Disc length: 4090 seconds
#
# Revision: 0
# Processed by: cddbd v1.4PL0 Copyright (c) Steve Scherf et al.
# Submitted via: dBpowerAMP V4.0
#
DISCID=090ff812
DTITLE=Screamin' Jay Hawkins - Spells and Potions - Disc 2
DYEAR=1900
DGENRE=Blues
TTITLE0=All Night
TTITLE1=Alligator Wine
TTITLE2=Ashes
TTITLE3=Constipation Blues
TTITLE4=Don't Deceive Me
TTITLE5=Feast of the Mau-Mau
TTITLE6=Guess Who
TTITLE7=I Don't Know
TTITLE8=A Feel Alright
TTITLE9=I Put A Spell On You
TTITLE10=It's Only Make Believe
TTITLE11=Itty Bitty Pretty One
TTITLE12=Please Don't Leave Me
TTITLE13=Portrait of a Man
TTITLE14=Same Damn Thing
TTITLE15=What Good is It - Part 1
TTITLE16=What Good is It - Part 2
TTITLE17=What's Gonna Happen On THe 8th Day
EXTD=
EXTT0=
EXTT1=
EXTT2=
EXTT3=
EXTT4=
EXTT5=
EXTT6=
EXTT7=
EXTT8=
EXTT9=
EXTT10=
EXTT11=
EXTT12=
EXTT13=
EXTT14=
EXTT15=
EXTT16=
EXTT17=
PLAYORDER=
